<svg xmlns="http://www.w3.org/2000/svg" viewBox="0 0 226.53 142.86"><defs><style>.cls-1{isolation:isolate;}.cls-2{fill:#89caf0;}.cls-3{fill:#d0ebf6;}.cls-3,.cls-4{stroke:#3050a1;}.cls-10,.cls-11,.cls-3,.cls-4{stroke-miterlimit:10;}.cls-10,.cls-3,.cls-4{stroke-width:4px;}.cls-10,.cls-11,.cls-4{fill:none;}.cls-5{fill:#2fa5df;}.cls-6{fill:#2f9bd7;}.cls-7{fill:#2f95d3;}.cls-8{fill:#a7dae8;}.cls-9{fill:#0a1734;}.cls-10,.cls-11{stroke:#0a1734;}.cls-11{stroke-width:3px;}</style></defs><g id="레이어_2" data-name="레이어 2"><g id="레이어_1-2" data-name="레이어 1"><g class="cls-1"><path class="cls-2" d="M83.3,87a55.78,55.78,0,0,0,22.92-4.71c4.29-1.84,1.86-8.38-2.27-8.39A103.85,103.85,0,0,0,65.73,81c-3.74,1.46-4.78,7.67,0,8.68a41.54,41.54,0,0,0,16.77.11l-2.39-8.68-11.43,4.1c-5.38,1.94-3.17,10.5,2.39,8.68a223.93,223.93,0,0,0,35-14.83l-4.54-7.77L88.82,79.45c-4.86,3.11-.38,10.87,4.55,7.77l20.15-12.68-5.45-7.07L95.42,81.59a4.52,4.52,0,0,0,5.45,7.07,133.54,133.54,0,0,0,36.2-25.47c4.18-4.13-2-10-6.37-6.36A82.54,82.54,0,0,0,115.29,74.2c-2.68,4,2.42,8,6.15,6.15a113.17,113.17,0,0,0,24.63-16.77l-6.36-6.36L129.59,70c-3.12,3.93.66,9.45,5.46,7.07A115.83,115.83,0,0,0,159.76,60.4L153.4,54,143.07,66.52c-3.64,4.41,2,10.36,6.37,6.36l18.8-17.37-7.52-4.38a36.21,36.21,0,0,1-6.47,13.67L162,69.35A35.07,35.07,0,0,1,170.49,60l-6.61-5.08-6.07,15.73c-1.11,2.86,1.68,5.6,4.34,5.7,8.71.32,17.65-3.62,22.58-11,3.74-5.63,4-16.57-5-17.08-7.21-.4-11.32,8.91-8,14.64,5.69,9.72,17.34,3.88,25.75,6.19a4.54,4.54,0,0,0,5.54-3.14,12,12,0,0,0-6.37-13.36c-6.05-3.31-13-.89-18.89,1.57-13,5.47-25.94,11.25-36.4,21l6.37,6.36C152.9,75.94,149.4,67,142,65.86c-3.83-.61-7.58.93-10.56,3.26s-8.21,11.4-12.47,9.44l.91,7.07a36,36,0,0,1,17.53-7.26l-5.53-3.14.31.93.46-3.46c-.78,1.53-6.47,2.07-8,2.43-2.72.63-5.47,1.18-8.23,1.62a118.76,118.76,0,0,1-17.36,1.34c-5.79,0-5.81,9.06,0,9A130.38,130.38,0,0,0,126.12,84c5.27-1.18,17.22-3,14.44-11.18-.86-2.52-3-3.51-5.53-3.14a44.24,44.24,0,0,0-21.51,9.57c-2.15,1.7-1.54,5.94.92,7.06a13.23,13.23,0,0,0,13.93-1.47,35.84,35.84,0,0,0,5.57-5.58,17.29,17.29,0,0,1,3.71-3.59c.59-.34,4.13-1,3.74-.54-3.93,4.26,2.12,10.32,6.37,6.36,6.56-6.11,14.29-10.49,22.38-14.26,4-1.89,8.14-3.72,12.29-5.36,2.22-.88,13.19-4.31,11.94,1.66l5.53-3.14c-3.91-1.08-7.57-.8-11.57-.49-2,.16-4.15.49-6.08-.08a4.51,4.51,0,0,1-2.72-1.49c.31-.62.14-1-.52-1.21-.72-.75-.93-.52-.63.7a5.59,5.59,0,0,1-1,2.34,14.05,14.05,0,0,1-4,4,17.62,17.62,0,0,1-11.23,3.14l4.34,5.7,6.07-15.74c1.35-3.5-3.54-7.41-6.61-5.08a47.25,47.25,0,0,0-11.7,12.59c-3.17,5,4.38,9,7.77,4.55a42.54,42.54,0,0,0,7.38-15.83,4.53,4.53,0,0,0-7.52-4.37L143.07,66.52l6.37,6.36L159.76,60.4c3.68-4.44-1.95-10.22-6.36-6.36a106.64,106.64,0,0,1-22.9,15.23L136,76.34l10.11-12.76c3.55-4.47-1.94-10.3-6.36-6.36A104.32,104.32,0,0,1,116.9,72.58l6.16,6.16a74.28,74.28,0,0,1,14-15.55l-6.37-6.36A125.87,125.87,0,0,1,96.33,80.89L101.78,88l12.65-14.12c3.27-3.65-.93-9.91-5.45-7.07L88.82,79.45l4.55,7.77,12.7-8.13c4.88-3.12.6-10.48-4.54-7.77A210.34,210.34,0,0,1,68.68,85.24l2.39,8.68,11.43-4.1a4.5,4.5,0,0,0-2.39-8.68,29.89,29.89,0,0,1-12-.11v8.68A97,97,0,0,1,104,82.94l-2.27-8.39A44.92,44.92,0,0,1,83.3,78c-5.79-.07-5.79,8.93,0,9Z"/></g><path class="cls-3" d="M16.38,25.05l.35-2.47c1.71-12,12.08-21,24.16-20.56.42,0,.83,0,1.25.07C59.06,3.45,61.92,18,61.92,18S74.29,14.27,79,25.77,72.08,48.1,72.08,48.1L5.47,46.41S-2.64,27.42,16.38,25.05Z"/><path class="cls-3" d="M166.88,124.34l.24-1.77c1.15-8.56,8.12-15,16.25-14.71l.84,0a14.6,14.6,0,0,1,13.31,11.38s8.32-2.66,11.5,5.57-4.67,16-4.67,16l-44.81-1.21S154.09,126,166.88,124.34Z"/><circle class="cls-4" cx="138.89" cy="20.15" r="4.9"/><circle class="cls-4" cx="129.7" cy="124.34" r="4.9"/><g class="cls-1"><path class="cls-2" d="M40.2,88.17c24.41-1.91,48-8.25,71.53-14.77l-3.47-8.22A261.77,261.77,0,0,1,67,81q-10.48,3-21.19,5.13-4.9,1-9.84,1.77c-1.35.21-4.4,0-5.47.78-1.58-.12-1.5.55.23,2a15.77,15.77,0,0,1,3-.78c5-1,3.86-9-1.2-8.84a38.69,38.69,0,0,0-17,4.59c-2.86,1.51-3,6.3,0,7.77a30.56,30.56,0,0,0,20,2.6c5.67-1.13,3.27-9.8-2.4-8.68a20.23,20.23,0,0,1-13-1.69V93.4A28.15,28.15,0,0,1,32.48,90L31.29,81.2c-3.8.77-7.48,2.3-9,6.1a7.51,7.51,0,0,0,2,8.82c3.43,2.72,8.37,1.28,12.26.68q8.08-1.23,16.08-3A272,272,0,0,0,112.81,73c4.65-2.24,1.36-9.56-3.47-8.22C86.63,71,63.78,77.32,40.2,79.17c-5.74.45-5.79,9.46,0,9Z"/></g><g class="cls-1"><path class="cls-2" d="M26.8,88.91c15.7.79,30.49-4.33,45.12-9.37C88.07,74,104,70.16,121.19,70.26c5.79,0,5.8-9,0-9-16.66-.1-32.59,3.13-48.32,8.46-15,5.08-30,11-46.07,10.19-5.79-.29-5.77,8.71,0,9Z"/></g><g class="cls-1"><path class="cls-2" d="M118.87,68.4c10.93.65,20.93-3.36,30.94-7.21,11.26-4.33,22.16-6.73,34.27-5.27,5.74.69,5.69-8.31,0-9-11.52-1.39-22.64.39-33.48,4.39-10.32,3.8-20.46,8.76-31.73,8.09-5.79-.34-5.77,8.66,0,9Z"/></g><g class="cls-1"><path class="cls-2" d="M179.48,54.05a58.64,58.64,0,0,1,26.13,7.82l4.54-7.77L202,49.76l-2.27,8.39a30,30,0,0,1,17.06,7.46l-.71-5.45c-1.5,3.49-5.82,3.86-9.15,4.61l-15.57,3.46-32.1,7.13L96,89.42c-5.65,1.25-3.26,9.93,2.39,8.68l69.08-15.35,34-7.57c7.43-1.65,18.82-2.34,22.31-10.48.76-1.76.91-4-.7-5.45a40.48,40.48,0,0,0-23.42-10.1c-4.5-.44-6.06,6.38-2.28,8.38l8.19,4.34c5.1,2.71,9.59-4.87,4.54-7.77a68.94,68.94,0,0,0-30.67-9.05c-5.79-.32-5.77,8.68,0,9Z"/></g><g class="cls-1"><path class="cls-2" d="M26.59,94.47l-2.86,4.75c-2.05,3.4,1.34,7.6,5.09,6.61a19.39,19.39,0,0,0,12.06-9.44c2.77-5.09-5-9.64-7.77-4.54a10.36,10.36,0,0,1-6.69,5.3l5.09,6.61L34.36,99c3-5-4.78-9.51-7.77-4.55Z"/></g><g class="cls-1"><path class="cls-2" d="M33.35,93.69A5.26,5.26,0,0,1,32.58,97c-2.56,4.3,3.59,9.33,7.06,5.45a45.53,45.53,0,0,0,7.77-11.83c1-2.22.65-4.84-1.61-6.16-1.92-1.12-5.17-.61-6.16,1.62a38.39,38.39,0,0,1-6.36,10l7.07,5.45a14,14,0,0,0,2-7.87c-.27-5.77-9.28-5.8-9,0Z"/></g><g class="cls-1"><path class="cls-2" d="M42,98.19H65.26c5.79,0,5.8-9,0-9H42c-5.79,0-5.8,9,0,9Z"/></g><g class="cls-1"><path class="cls-2" d="M40.22,99.66l22.23,1.5c5.84.4,5.68-8.43,0-9a13,13,0,0,0-5,.5c-5.09,1.44-3.73,8.44,1.2,8.84a72.29,72.29,0,0,0,29.82-3.81c5.44-1.89,3.1-10.59-2.39-8.68A65.74,65.74,0,0,1,58.65,92.5l1.19,8.84a4.17,4.17,0,0,1,2.61-.18v-9l-22.23-1.5c-5.78-.39-5.76,8.61,0,9Z"/></g><g class="cls-1"><path class="cls-2" d="M66.43,102.24a130.17,130.17,0,0,0,20.13-.77c5.59-.68,11.18-1.32,16.07-4.3s.41-10.8-4.55-7.77c-4.45,2.72-10.27,3-15.34,3.46a130.59,130.59,0,0,1-16.31.38c-5.8-.2-5.79,8.8,0,9Z"/></g><g class="cls-1"><path class="cls-2" d="M81,96.83a8.35,8.35,0,0,0,6.38-1,4.76,4.76,0,0,0,2.07-2.69A4.62,4.62,0,0,0,89,89.68c-1.27-2-4-3-6.15-1.61a4.83,4.83,0,0,1-.67.36L83.21,88a4.79,4.79,0,0,1-.92.24l1.2-.16a3.78,3.78,0,0,1-.95,0l1.19.16a2.38,2.38,0,0,1-.37-.06,4.77,4.77,0,0,0-3.47.45,4.49,4.49,0,0,0-1.61,6.16A4.46,4.46,0,0,0,81,96.83Z"/></g><g class="cls-1"><path class="cls-2" d="M97.72,91.36V86.7a4.5,4.5,0,0,0-9,0v4.66a4.5,4.5,0,0,0,9,0Z"/></g><g class="cls-1"><path class="cls-2" d="M204.34,57.41a214.1,214.1,0,0,1-26.62,5.71c-5.08.75-3.77,8.9,1.2,8.84a190.33,190.33,0,0,0,25.57-2c6.87-1,13.34-2.16,18.82-6.69,2.56-2.12,1.16-6.87-2-7.52-14.55-3-28,2-41.27,7.48S152.34,71,139.16,76.75c-5.29,2.32-.72,10.08,4.54,7.77,11.9-5.2,25-7,37.08-11.94s24.84-10.93,38.15-8.17l-2-7.53c-4.42,3.67-11.72,4-17.15,4.69A179.85,179.85,0,0,1,178.92,63l1.2,8.84a214.1,214.1,0,0,0,26.62-5.71c5.56-1.57,3.2-10.25-2.4-8.68Z"/></g><g class="cls-1"><path class="cls-2" d="M102,89.31q-6.82,12.16-12.44,24.91c-2.31,5.25,5.44,9.84,7.77,4.55q5.63-12.76,12.44-24.92c2.84-5.06-4.93-9.6-7.77-4.54Z"/></g><g class="cls-1"><path class="cls-2" d="M93.33,116.76q7.19-12.93,15.15-25.37l-8.39-2.27c-.24,8-5.07,14.59-8.86,21.35-1.39,2.48-3.41,5.27-3.1,8.24A5.37,5.37,0,0,0,94,123.59c5.75-.28,11-8.25,13.58-12.61A59.78,59.78,0,0,0,112,101.6q1-2.52,1.77-5.12c.25-.82.77-4.77,1.52-5.14l-6.61-5.08L97.93,113.59c-1.47,3.73,3.48,7,6.61,5.08,5.51-3.41,9.26-9.33,13.3-14.27l14.4-17.66c3.63-4.45-2.7-10.86-6.37-6.36L112.72,96.5c-3.78,4.63-7.56,11.2-12.72,14.4l6.61,5.08,10.77-27.33c1.57-4-3.47-6.62-6.61-5.08-5.12,2.51-5.34,10.16-7.15,14.92a49.07,49.07,0,0,1-4.24,8.6c-1.41,2.24-4.41,7.24-7.21,7.74l3.46.46-.73-.47,2.23,3.89c-.21-1.73,2.63-5,3.52-6.55,1.51-2.59,3-5.17,4.37-7.86a36.39,36.39,0,0,0,4.07-15.18c.14-4.64-6.07-5.89-8.38-2.27q-8,12.45-15.15,25.36c-2.82,5.07,5,9.61,7.77,4.55Z"/></g><g class="cls-1"><path class="cls-2" d="M24.32,109.11a22.48,22.48,0,0,0,6.17-.75c1.89-.58,3.44-1.81,5.27-2.49a3.59,3.59,0,0,0,2.44-4.31,3.52,3.52,0,0,0-4.3-2.44c-1.67.62-3.11,1.62-4.74,2.29a13,13,0,0,1-4.84.7c-4.5.11-4.51,7.11,0,7Z"/></g><g class="cls-1"><path class="cls-2" d="M90.3,89.56a78.1,78.1,0,0,1,5.86-5.5,3.54,3.54,0,0,0,0-5,3.58,3.58,0,0,0-5,0,76.22,76.22,0,0,0-5.86,5.51,3.5,3.5,0,1,0,5,4.94Z"/></g><g class="cls-1"><path class="cls-2" d="M19.55,90.93a75.75,75.75,0,0,0,19.58-5.47C46.61,82.23,53.5,78,62,79c4.46.55,4.42-6.45,0-7-7.66-.94-14.49,1.9-21.3,5.07a80.56,80.56,0,0,1-23,7.08c-4.44.62-2.55,7.37,1.86,6.75Z"/></g><g class="cls-1"><path class="cls-5" d="M4.42,41.34C5.5,53.1,13.5,63.45,18.3,73.94c1.51,3.29,1.43,7.44,6.24,6.8,5.57-.73,8.11-6.27,14.11-6.54l-.93-6.88A15.54,15.54,0,0,0,29,72.22a3.54,3.54,0,0,0,2.47,6c6.62.32,11.65-3.84,18.08-4.07,3.72-.13,4.44-4.49,1.77-6.52C42.2,60.73,35.28,52.79,28.14,44c-4.25-5.21-11.72-11.77-18.76-7.16a3.5,3.5,0,0,0-1.74,3c.36,5.7,5.41,11.33,8.82,15.61,4.5,5.66,9.46,11.05,11.77,18.06l5.14-4c-6.16-3.93-9.43-9.37-12.12-16-1.43-3.55-6.67-3.24-6.87.93-.17,3.53,1.8,6.9,3.25,10s2.64,7.5,5,10c4.06,4.37,12.82,1.75,17-1.37,6.18-4.64-1.84-9.71-5.31-12.47-6.61-5.26-13-10.81-17.45-18.06l-3,5.26c3.95.1,7,6.4,9.07,9.12L30,66.33c2.71,3.53,8.79,0,6-3.53-3.95-5.15-7.88-10.32-11.86-15.45-2.82-3.65-5.56-6.29-10.37-6.41a3.53,3.53,0,0,0-3,5.27c4.95,8,11.85,14.19,19.18,20l2.59,2c.43.34.86.68,1.3,1,.67.77.85.68.53-.26,1-1.29-3.69.44-3.86.48-1,.23-2,.57-2.9,0-1.37-.94-2.56-5.42-3.29-7-1.08-2.3-3.1-5.31-3-7.93l-6.88.93c3.39,8.38,7.58,15.25,15.34,20.21,2.51,1.61,6.09-1.07,5.14-4-1.9-5.77-5.14-10.63-8.89-15.36-2-2.49-4.05-4.89-6-7.41-1.65-2.18-5.32-6.28-5.49-9l-1.73,3c5.57-3.65,14.64,11.69,17,14.57,5,6.15,11.6,11.41,17.88,16.17l1.76-6.53c-6.41.23-11.76,4.37-18.08,4.07l2.48,6a9.46,9.46,0,0,1,5.67-3.1c3.88-.73,3-7-.93-6.87-3.14.14-6,.51-8.72,2.18A33.69,33.69,0,0,0,27,71.54c-.65.53-1.32,1-2,1.51-1.76.78-2.14,1-1.12.69l2.44,2.45C24.46,70.92,22.12,66,19.74,60.86c-3-6.43-7.65-12.23-8.32-19.52-.41-4.45-7.42-4.49-7,0Z"/></g><g class="cls-1"><path class="cls-6" d="M69.55,49.68c4.89.4,9.16-1.13,14,.34,3.84,1.16,7.52,2.84,11.3,4.17a122.84,122.84,0,0,0,26.45,5.9v-7c-8.08.89-16.52.35-24.44,2.56-2.57.71-2,.68-4.16-.07S88.39,53,86.37,51.9c-3.76-2.06-7.6-4-11.43-5.91l-1.76,6.52a125.31,125.31,0,0,1,33.11,7.29l.93-6.87-18,.43,2.48,6c1.89-2.23,4.45,1.31,6.55,2.16,2.44,1,4.32.63,6.61-.42,4.1-1.86.54-7.89-3.53-6-.68.31-6.22-3.91-8-4-2.77-.21-4.9,1.36-6.6,3.38-1.86,2.19-.77,6,2.47,6l18-.43c4.09-.1,4.58-5.55.93-6.88a132.1,132.1,0,0,0-35-7.54c-3.44-.27-4.8,5-1.77,6.52,4.38,2.21,8.76,4.4,13,6.81,2.85,1.6,5.9,4.42,9.26,4.54,4.22.15,9.08-1.83,13.31-2.31,4.76-.54,9.56-.46,14.31-1a3.5,3.5,0,0,0,0-7A117.41,117.41,0,0,1,93.38,46.2c-3.69-1.39-7.41-3.1-11.31-3.81-4.23-.76-8.29.63-12.52.29-4.49-.37-4.46,6.63,0,7Z"/></g><g class="cls-1"><path class="cls-7" d="M134.15,88.75A130.41,130.41,0,0,1,119,104.28c-3.06,2.66.86,7.42,4.24,5.5a108.05,108.05,0,0,1,15.7-7.39,3.58,3.58,0,0,0,2.45-4.31,22.76,22.76,0,0,1-1.07-6h-7l.45,8.21c.21,3.7,6.22,5,6.88.93l.73-4.56-5.14,2.09a8.61,8.61,0,0,1,2.63,2.84L141,96.49l-12,2c-4.43.73-2.55,7.47,1.86,6.75l12-2c2.25-.37,3.17-3.37,2.09-5.14a16.87,16.87,0,0,0-5.14-5.36c-1.73-1.18-4.8-.06-5.14,2.1l-.73,4.56,6.87.93-.45-8.21c-.25-4.47-7.21-4.52-7,0a30.64,30.64,0,0,0,1.32,7.83l2.44-4.31a120.21,120.21,0,0,0-17.37,8.09l4.24,5.5A130.41,130.41,0,0,0,139.1,93.7c2.84-3.45-2.08-8.43-4.95-5Z"/></g><path class="cls-8" d="M174.2,58.77q8,0,16-.69v-1L170.7,58.71c-.63,0-.64,1,0,1l19.52-1.63c.63,0,.64-1,0-1q-8,.64-16,.69a.5.5,0,0,0,0,1Z"/><path class="cls-8" d="M173.39,61a63.62,63.62,0,0,0,19.71-2.07L191,51.18a122,122,0,0,0-14.47,5.26c-4.34,2-1.1,8.16,3.08,7.31,4.48-.91,8.95-1.89,13.38-3,4.28-1.06,9.5-3.54,13.88-2.72,5,1,7.19-6.73,2.12-7.71-3.42-.67-6.91-1.59-10.37-2-3.77-.44-5.43,1.14-8.37,3.37-4,3.08-.06,10,4,6.91,2.49-1.89,3-2.39,6-1.86,2.19.39,4.37.86,6.56,1.28L209,50.33c-5.06-1-9.45.47-14.33,1.75-5.68,1.49-11.41,2.79-17.17,4l3.08,7.31a105.28,105.28,0,0,1,12.56-4.46c4.91-1.5,2.88-9-2.13-7.71A56.61,56.61,0,0,1,173.39,53c-5.15-.27-5.13,7.73,0,8Z"/><path class="cls-9" d="M197.2,75.84a2,2,0,0,1,.05.42,1.9,1.9,0,0,1-1.46,1.85l-16.11,3.74a1.87,1.87,0,0,1-2.26-1.41,2.18,2.18,0,0,1,0-.43,1.89,1.89,0,0,1,1.46-1.83l16.1-3.75A1.9,1.9,0,0,1,197.2,75.84Z"/><path class="cls-10" d="M201.65,75.1l16.18-3.76a3,3,0,0,0,.7-.27c9.73-5.46,5.08-12.39,3.51-14.3a2.49,2.49,0,0,0-1-.73c-1.3-.55-2.58-1.07-3.83-1.57A144.25,144.25,0,0,0,197.12,48c-15.76-3.7-23.73-2-23.73-2L127.6,56.64,95.34,64.15l-38.74,9L21.75,81.27l-4.7,1.09a2.55,2.55,0,0,0-1.62,1.17c-1.68,2.76-5.17,10.82,8.63,14.25"/><polyline class="cls-10" points="30.62 89.54 18.6 110.58 36.57 106.4 43.23 98.38 55.34 83.79"/><path class="cls-10" d="M43.23,98.38c1.15,6.64,39.28,5,39.28,5l12.15-2.82.16,0"/><polyline class="cls-10" points="100.04 91.64 94.66 100.6 72.86 136.89 95.55 131.61 114.95 109.67 133.47 88.73 138.89 82.6"/><path class="cls-10" d="M153.63,86.07a4.06,4.06,0,0,1,1.49,2.49c1.18,5.53,1.52,6.52,1.52,6.52s1.24,5.36-7.25,7.17l-5.6,1.33-28.17,6.68"/><path class="cls-10" d="M133.47,88.73l6.5-1.51,6.15-1.43s4.87-1.71,7.5.28"/><polyline class="cls-10" points="153.62 86.07 153.63 86.07 171.62 81.89"/><polyline class="cls-10" points="57.1 73.65 56.6 73.16 17.39 35.14 2.81 38.53 21.75 81.27 21.99 81.82"/><polyline class="cls-10" points="96.11 64.58 95.34 64.15 61.33 44.94 79.65 40.68 127.6 56.64 128.67 57"/><line class="cls-10" x1="139.97" y1="87.22" x2="143.19" y2="101.07"/><path class="cls-10" d="M197.09,48.17l-30.17,7a54,54,0,0,0,9.89,7.2C181.23,65,217,54.93,217,54.93"/><path class="cls-11" d="M75.08,88l10.71-2.49s-1-7.69-7.63-7C78.16,78.41,72.79,80.11,75.08,88Z"/><path class="cls-11" d="M90.35,84.4l10.71-2.49s-1-7.69-7.64-7.06C93.42,74.85,88.06,76.55,90.35,84.4Z"/><path class="cls-11" d="M106.46,80.65l10.7-2.49s-1-7.69-7.63-7C109.53,71.11,104.16,72.81,106.46,80.65Z"/><path class="cls-11" d="M121.72,77.1l10.71-2.49s-1-7.69-7.63-7C124.8,67.56,119.43,69.26,121.72,77.1Z"/></g></g></svg>